<?xml version="1.0" standalone="no"?>
<!DOCTYPE svg PUBLIC "-//W3C//DTD SVG 20010904//EN"
 "http://www.w3.org/TR/2001/REC-SVG-20010904/DTD/svg10.dtd">
<svg version="1.0" xmlns="http://www.w3.org/2000/svg"
 width="600.000000pt" height="600.000000pt" viewBox="0 0 600.000000 600.000000"
 preserveAspectRatio="xMidYMid meet">

<g transform="translate(0.000000,600.000000) scale(0.100000,-0.100000)"
fill="#000000" stroke="none">
<path d="M0 3000 l0 -3000 3000 0 3000 0 0 3000 0 3000 -3000 0 -3000 0 0
-3000z m977 2498 c73 -27 154 -102 190 -177 25 -49 28 -68 28 -151 0 -84 -3
-102 -28 -152 -36 -73 -119 -150 -192 -177 -75 -28 -175 -28 -252 1 -42 15
-75 38 -119 82 -51 52 -64 72 -83 134 -62 193 38 387 232 447 66 21 158 18
224 -7z m4285 -13 c223 -106 262 -416 75 -580 -76 -66 -141 -88 -247 -83 -137
7 -228 64 -290 180 -29 54 -35 75 -38 148 -3 69 0 96 17 141 37 98 126 180
234 215 67 22 180 13 249 -21z m-3197 -794 c8 -14 189 -823 224 -1001 16 -85
40 -217 52 -293 23 -140 31 -151 43 -62 32 224 93 480 239 995 l104 365 268 0
268 0 68 -275 c106 -429 175 -727 219 -950 22 -113 42 -209 44 -215 2 -5 9 31
15 80 41 294 88 536 239 1230 l28 130 790 0 789 0 3 -1077 2 -1078 -285 0
-285 0 0 805 0 805 -289 0 -290 0 -25 -82 c-18 -61 -304 -1058 -433 -1510 -5
-17 -26 -18 -268 -18 l-262 0 -42 163 c-24 89 -63 238 -87 330 -75 281 -183
735 -201 850 l-17 109 -38 -184 c-28 -137 -270 -1132 -304 -1250 -5 -17 -27
-18 -273 -18 l-267 0 -12 48 c-21 78 -392 1422 -413 1495 l-20 67 -289 0 -290
0 0 -805 0 -805 -285 0 -285 0 0 1080 0 1080 779 0 c453 0 782 -4 786 -9z
m-1385 -3556 l0 -325 28 -31 c48 -54 149 -56 201 -5 l26 26 3 330 3 330 89 0
90 0 0 -332 c0 -204 -4 -348 -11 -371 -14 -50 -65 -107 -126 -137 -43 -23 -60
-25 -174 -25 -120 0 -128 1 -184 30 -46 23 -66 42 -90 79 l-30 49 -3 354 -3
353 91 0 90 0 0 -325z m879 129 c52 -107 106 -228 122 -267 l28 -72 -5 268 -6
267 86 0 86 0 0 -430 0 -430 -90 0 c-89 0 -90 0 -105 30 -23 45 -141 311 -196
440 l-48 115 6 -292 6 -293 -86 0 -87 0 0 430 0 430 98 0 98 0 93 -196z m661
-234 l0 -430 -90 0 -90 0 0 430 0 430 90 0 90 0 0 -430z m1011 415 c56 -20
114 -77 135 -132 18 -46 13 -117 -11 -164 -16 -30 -80 -89 -98 -89 -7 0 6 -9
28 -19 49 -22 96 -70 112 -113 32 -89 1 -214 -66 -271 -56 -47 -114 -57 -333
-57 l-198 0 0 430 0 430 194 0 c149 0 204 -4 237 -15z m784 -37 c-12 -95 2
-88 -161 -88 l-144 0 0 -100 0 -100 120 0 120 0 0 -70 0 -70 -120 0 -120 0 0
-115 0 -115 163 -2 162 -3 3 -72 3 -73 -256 0 -255 0 0 430 0 430 246 0 246 0
-7 -52z m546 37 c94 -33 154 -128 153 -240 0 -105 -62 -202 -144 -226 l-39
-12 31 -37 c17 -20 70 -101 118 -181 l88 -144 -101 -3 c-119 -3 -98 -20 -200
162 -70 125 -122 196 -146 196 -8 0 -11 -53 -11 -180 l0 -180 -85 0 -85 0 0
430 0 430 189 0 c144 0 199 -4 232 -15z m581 -172 c49 -104 105 -226 123 -272
l32 -84 -5 272 -5 271 87 0 86 0 0 -430 0 -430 -93 0 -93 0 -49 108 c-27 59
-84 188 -128 287 l-79 180 6 -287 5 -288 -85 0 -84 0 0 430 0 430 96 0 95 0
91 -187z"/>
<path d="M2978 1215 l3 -95 80 0 c74 0 82 2 104 26 35 38 35 105 0 139 -22 23
-32 25 -107 25 l-83 0 3 -95z"/>
<path d="M2982 858 l3 -111 79 2 c91 3 110 10 131 51 25 49 20 107 -14 141
-28 28 -34 29 -116 29 l-86 0 3 -112z"/>
<path d="M4317 1239 c-4 -46 -7 -99 -7 -118 l0 -34 82 6 c77 5 85 8 110 36 39
44 39 108 0 152 -26 29 -35 32 -104 37 l-75 4 -6 -83z"/>
</g>
</svg>
