<?xml version="1.0" standalone="no"?>
<!DOCTYPE svg PUBLIC "-//W3C//DTD SVG 20010904//EN"
 "http://www.w3.org/TR/2001/REC-SVG-20010904/DTD/svg10.dtd">
<svg version="1.0" xmlns="http://www.w3.org/2000/svg"
 width="561.000000pt" height="561.000000pt" viewBox="0 0 561.000000 561.000000"
 preserveAspectRatio="xMidYMid meet">
<metadata>
Created by potrace 1.14, written by Peter Selinger 2001-2017
</metadata>
<g transform="translate(0.000000,561.000000) scale(0.100000,-0.100000)"
fill="#000000" stroke="none">
<path d="M517 4013 c-4 -3 -7 -530 -7 -1170 l0 -1163 230 0 230 0 0 956 c-1
526 0 958 2 960 2 1 29 -113 61 -254 31 -141 95 -430 143 -642 47 -212 92
-410 98 -440 7 -30 39 -173 71 -317 l59 -263 238 0 238 0 4 23 c13 58 77 346
86 382 10 42 17 72 126 557 87 390 98 437 139 618 20 85 43 187 51 225 9 39
20 84 24 100 4 17 8 -405 9 -937 l1 -968 225 0 225 0 0 1170 0 1170 -350 0
-350 0 -5 -22 c-21 -97 -187 -822 -195 -853 -5 -22 -48 -209 -95 -415 -134
-589 -121 -539 -133 -510 -5 14 -44 176 -86 360 -42 184 -134 583 -204 885
l-128 550 -350 3 c-193 1 -353 -1 -357 -5z"/>
<path d="M3240 2850 l0 -1171 628 4 c660 4 699 6 847 53 111 36 231 122 305
220 95 126 140 265 140 433 0 124 -16 196 -65 297 -42 86 -133 177 -218 217
-31 15 -57 30 -57 35 0 4 15 16 33 27 122 71 191 170 222 320 19 94 19 166 -1
263 -22 106 -65 191 -134 265 -96 103 -187 148 -379 188 -86 18 -138 19 -707
19 l-614 0 0 -1170z m1125 750 c124 -15 185 -44 221 -105 50 -87 43 -226 -17
-298 -69 -83 -147 -97 -551 -97 l-318 0 0 255 0 255 288 0 c158 0 327 -5 377
-10z m38 -901 c186 -29 276 -136 265 -314 -9 -130 -77 -230 -187 -272 -40 -15
-92 -18 -413 -21 l-368 -3 0 304 c0 167 3 307 7 310 11 12 619 8 696 -4z"/>
</g>
</svg>
